<svg width="1440" height="537" viewBox="0 0 1440 537" fill="none" xmlns="http://www.w3.org/2000/svg">
<path fill-rule="evenodd" clip-rule="evenodd" d="M48 80.3L0 59V217V219V249L48 275.7C49.2992 276.412 50.6335 277.144 52.002 277.895C101.197 304.887 194.598 356.135 288 361C333.438 363.367 378.876 355.204 424.314 347.041C474.876 337.958 525.438 328.875 576 334.3C632.477 340.595 688.954 365.337 745.43 390.078C784.954 407.393 824.477 424.708 864 435.7C925.569 452.567 987.138 454.504 1048.71 456.44C1083.14 457.523 1117.57 458.606 1152 462.3C1248 473 1344 505 1392 521L1440 537V219V217H1437.75L1392 176.3C1390.82 175.262 1389.61 174.197 1388.38 173.107C1339.29 129.811 1245.64 47.2219 1152 16.3C1056 -16 960 6.00001 864 32.3C816 45.65 768 60.325 720 75C672 89.675 624 104.35 576 117.7C480 144 384 166 288 155C192 144 96 102 48 80.3Z" fill="#A05B00" fill-opacity="0.7"/>
</svg>
