<svg width="1920" height="586" viewBox="0 0 1920 586" fill="none" xmlns="http://www.w3.org/2000/svg">
<path fill-rule="evenodd" clip-rule="evenodd" d="M-9.63042 59.3154L13.0443 55.865C27.9721 53.8368 52.4313 50.2834 80.351 46.2272L80.3518 46.227L80.3557 46.2265C94.7875 44.1298 110.144 41.8988 125.586 39.6747C170.906 33.1476 215.484 26.5612 261.192 15.1756C265.657 14.0635 270.118 12.9009 274.574 11.7399L274.576 11.7394C315.737 1.01377 356.398 -9.58171 394.374 20.9484C414.482 36.9236 433.501 64.3851 452.512 91.8366C473.322 121.885 494.123 151.921 516.337 166.869C552.291 191.063 590.861 175.909 629.812 160.606C636.911 157.816 644.023 155.022 651.135 152.46C697.262 135.843 741.84 129.256 785.544 142.91C819.821 153.62 852.649 176.707 885.724 199.969L885.726 199.97C894.82 206.366 903.934 212.775 913.101 218.944C955.608 247.547 997.792 270.859 1043.5 259.473C1068.16 253.33 1093.43 236.944 1118.71 220.545C1140.29 206.55 1161.88 192.547 1183.12 184.895C1210.8 174.922 1237.34 175.83 1263.94 176.741C1281.66 177.347 1299.4 177.955 1317.52 175.345C1332.87 173.259 1348.33 168.806 1363.75 164.361C1393.84 155.691 1423.82 147.051 1452.71 156.078C1471.08 161.817 1488.76 174.613 1506.41 187.394C1530.76 205.018 1555.06 222.614 1581.11 221.647C1611.87 220.76 1644.36 193.887 1676.98 166.9C1691.98 154.492 1707.01 142.061 1721.92 132.119C1769.24 100.552 1813.82 93.9658 1857.91 102.762C1901.13 111.01 1942.45 133.898 1964.28 145.992L1965.64 146.741L1987.09 158.614L1971.53 352.874C1971.91 353.301 1972.11 353.886 1972.01 354.498L1970.71 363.109L1970.24 369.022L1969.83 368.989L1926.79 654.225C1926.61 655.377 1925.5 656.137 1924.36 655.875L1622.58 586.293L1592.29 717.623L1545.99 710.447L1544.61 710.23C1496.53 702.676 1404.84 688.269 1316.3 653.972C1274.99 637.968 1234.96 617.771 1194.95 597.583C1148.38 574.087 1101.85 550.606 1053.35 533.769C1008.28 518.118 962.201 508.367 916.126 498.617C870.05 488.867 823.975 479.116 778.897 463.465C750.095 453.464 721.982 441.12 693.918 428.797C634.135 402.547 574.574 376.393 509.044 373.201C460.897 370.856 410.219 381.064 359.54 391.273C308.862 401.482 258.183 411.69 210.037 409.345C115.547 404.742 33.4663 352.399 -10.2818 324.5C-11.1166 323.968 -11.9374 323.445 -12.7441 322.931L-54.4467 295.796L-31.4309 196L-20.77 198.459L-9.63042 59.3154Z" fill="#A05B00" fill-opacity="0.7"/>
</svg>
