<svg width="1920" height="559" viewBox="0 0 1920 559" fill="none" xmlns="http://www.w3.org/2000/svg">
<path fill-rule="evenodd" clip-rule="evenodd" d="M33.132 9.96174L-14.7489 0.235474L-28.648 179.698L-15.8088 180.692L-28.7129 236.784L-3.64239 233.316C-1.86892 233.172 -0.00673962 233.02 1.93743 232.86C32.5311 230.351 83.428 226.178 128.465 228.82C180.75 233.666 230.57 249.231 278.595 272.594C297.815 282.951 317.593 295.063 337.839 307.462L337.839 307.462C363.089 322.924 389.066 338.832 415.595 352.339C463.621 375.701 508.829 390.206 559.545 401.873C610.261 413.541 661.874 421.31 711.118 418.274C730.865 417.549 750.943 415.383 771.021 413.217L771.022 413.217C805.703 409.476 840.383 405.735 873.355 409.422C900.207 412.682 927.172 422.271 954.763 432.083C975.699 439.528 996.994 447.101 1018.87 452.134C1052.03 459.762 1084.55 461.105 1117.71 462.475C1135.27 463.2 1153.01 463.933 1171.12 465.611C1223.41 470.456 1274.12 482.124 1317.54 504.425C1333.47 512.538 1349.1 521.949 1364.74 531.361C1396.01 550.184 1427.28 569.007 1460.94 577.435C1504.92 589.529 1557.96 581.812 1588.72 577.335C1589.9 577.164 1591.04 576.997 1592.15 576.837L1617.67 571.421L1620.57 558.828L1924.36 628.875C1925.5 629.137 1926.61 628.377 1926.79 627.225L1970.95 334.563L1971.8 334.63L1974.58 298.737L1926.24 294.993C1879.56 291.378 1784.54 284.019 1693.69 222.821C1659.88 200.411 1626.85 170.83 1593.96 141.367C1536.83 90.2021 1480.1 39.3957 1420.39 27.1333C1362.49 15.242 1301.78 39.5971 1241.07 63.9523C1203.12 79.1742 1165.18 94.3962 1127.92 100.769C1063.23 111.832 999.871 96.168 936.756 80.5646C905.345 72.7993 873.996 65.0491 842.574 60.6158C775.033 51.0863 706.309 56.8172 637.586 62.548C610.097 64.8404 582.607 67.1328 555.194 68.4485C459.246 73.0534 364.224 65.6941 267.999 52.2237C173.441 38.8823 79.3459 19.5589 33.132 9.96174Z" fill="#A05B00" fill-opacity="0.7"/>
</svg>
