<svg width="1920" height="630" viewBox="0 0 1920 630" fill="none" xmlns="http://www.w3.org/2000/svg">
<path fill-rule="evenodd" clip-rule="evenodd" d="M-9.80679 187.9L2.89068 169.515C14.6369 159.925 31.7539 142.559 50.681 123.356L50.6811 123.356C60.8561 113.033 71.5542 102.179 82.2221 91.717C112.981 58.5869 143.739 25.4568 173.019 11.5726C202.546 -5.51935 224.985 -3.79624 251.557 17.6035C278.374 35.7955 303.713 73.2334 329.053 110.671C331.896 114.475 334.735 118.317 337.575 122.16C360.294 152.904 383.013 183.648 407.288 194.116C426.971 205.014 447.696 202.339 468.421 199.664C476.193 198.661 483.964 197.658 491.681 197.37C496.072 196.715 500.452 196.211 504.831 195.707C528.917 192.936 553.004 190.166 579.03 162.133C584.457 154.891 590.259 146.175 596.295 137.11C618.229 104.165 643.24 66.5986 664.464 78.3497C677.862 84.127 689.718 109.975 701.574 135.822L701.574 135.823C713.886 162.664 726.198 189.506 740.236 193.871C756.665 197.039 775.33 171.087 793.995 145.134C806.917 127.167 819.839 109.2 832.019 100.896C851.868 87.3629 869.746 99.4909 887.624 111.619C896.563 117.683 905.502 123.747 914.688 126.603C926.394 128.861 938.45 126.569 950.506 124.277C967.082 121.126 983.659 117.975 999.327 126.65C1009.24 131.834 1019.71 145.145 1030.76 159.197C1043.9 175.898 1057.86 193.645 1072.69 200.041C1091.3 210.343 1111.18 203.967 1131.07 197.592C1140.11 194.694 1149.15 191.796 1158.07 190.464C1186.61 186.203 1213.68 201.187 1240.49 219.38C1246.45 223.422 1252.39 227.782 1258.32 232.141C1279.1 247.399 1299.87 262.658 1321.68 264.333C1347.08 266.283 1373.88 249.832 1396.29 236.078C1398.64 234.639 1400.93 233.228 1403.18 231.872C1432.46 217.988 1461.49 207.311 1488.56 222.296C1502.21 228.184 1515.37 240.488 1528.53 252.791C1541.7 265.095 1554.86 277.399 1568.51 283.287C1595.58 298.271 1624.61 287.595 1655.12 257.672C1665.89 246.077 1676.87 231.731 1687.84 217.385C1708.23 190.742 1728.61 164.099 1747.65 155.074C1762.91 147.838 1775.84 150.941 1788.84 154.06C1800.78 156.924 1812.77 159.802 1826.68 154.69C1837.82 151.799 1849.41 143.14 1860.99 134.481C1879.34 120.771 1897.68 107.061 1914.27 116.245C1937.5 126.263 1957.35 180.385 1971.45 218.841L1971.45 218.842L1971.45 218.85C1973.93 225.596 1976.22 231.861 1978.33 237.32L1987.09 270.258L1976.5 408.186L1970.62 407.735L1926.79 698.225C1926.61 699.377 1925.5 700.137 1924.36 699.875L1629.18 631.814L1610.39 723.162L1596.86 703.924C1596.39 703.257 1595.91 702.568 1595.41 701.858C1581.55 682.08 1556.5 646.349 1523.59 642.227C1504.17 639.861 1481.77 649.465 1459.48 659.024C1444.25 665.556 1429.07 672.067 1414.92 674.722C1387.84 679.394 1364.26 671.014 1340.3 662.501C1332.18 659.617 1324.02 656.718 1315.67 654.305C1299.87 649.683 1283.31 646.962 1266.75 644.241C1250.19 641.52 1233.63 638.799 1217.82 634.176C1186.47 625.121 1157.84 609.202 1128.16 592.693C1126.59 591.823 1125.02 590.951 1123.45 590.078C1093.47 572.939 1062.08 555.512 1028.54 548.611C1006.89 544.158 983.633 544.345 960.602 544.531C949.424 544.621 938.3 544.711 927.441 544.269C892.81 542.63 860.661 536.016 827.113 529.115L827.113 529.115L729.265 508.985C695.717 502.084 663.567 495.47 631.102 483.306C600.035 471.429 568.653 454.003 538.668 436.864C507.285 419.437 475.903 402.011 446.459 382.241C442.486 379.657 438.545 377.034 434.619 374.421C416.318 362.241 398.36 350.289 379.083 343.573L357.279 338.546C355.562 338.361 353.831 338.225 352.086 338.143C335.47 337.467 317.421 341.982 299.373 346.497C281.325 351.012 263.276 355.526 246.66 354.851C230.354 354.079 215.319 348.704 200.301 343.336C183.423 337.303 166.567 331.277 147.956 331.802C134.221 332.323 119.449 336.712 104.629 341.116C83.0077 347.541 61.2843 353.996 42.5301 348.51C10.8367 339.357 -13.0797 298.93 -26.4283 276.366C-26.9813 275.431 -27.5161 274.527 -28.0327 273.657L-41.0174 251.787L-37.7696 236L-20.9957 239.451L-13.8779 240.915L-9.80679 187.9Z" fill="#A05B00" fill-opacity="0.7"/>
</svg>
