<svg width="1920" height="649" viewBox="0 0 1920 649" fill="none" xmlns="http://www.w3.org/2000/svg">
<path fill-rule="evenodd" clip-rule="evenodd" d="M-14.723 186.797L1.6628 192.005C3.47315 192.807 5.35713 193.67 7.31356 194.567C28.7557 204.393 58.8993 218.207 96.1837 199.008C114.844 189.692 135.861 170.233 156.754 150.888C174.861 134.124 192.875 117.445 209.183 107.527C233.516 97.2988 256.887 100.045 279.047 102.649C293.672 104.368 307.769 106.025 321.267 103.849C355.047 99.5217 385.838 80.374 419.672 59.3349C425.409 55.7667 431.235 52.1442 437.177 48.5303C472.598 23.1956 513.578 -1.72713 552.499 1.15658C585.859 3.62834 622.719 34.3185 651.959 92.4032C665.029 114.374 676.983 140.769 688.769 166.793L688.769 166.794C708.362 210.057 727.489 252.29 750.504 271.454C787.364 302.144 822.785 276.809 864.354 243.942C868.288 240.306 872.295 236.581 876.366 232.796L876.377 232.786C909.568 201.927 947.002 167.125 983.502 144.927C1018.92 119.593 1059.02 106.587 1090.03 140.837C1112.13 159.242 1131.18 191.785 1150.58 224.935C1163.53 247.063 1176.64 269.463 1190.93 288.109C1226.61 334.689 1259.09 349.077 1297.42 359.906C1330.19 370.322 1369.11 373.206 1406.59 320.065C1426 294.669 1446.18 258.915 1465.77 224.185L1465.78 224.184C1489.93 181.371 1513.22 140.116 1533.1 121.742C1558.17 101.92 1579.07 110.843 1600.38 119.94C1614.41 125.927 1628.62 131.99 1644.3 129.981C1655.99 128.096 1668.76 120.605 1681.99 112.847C1707.16 98.0809 1733.98 82.3493 1758.15 102.469C1772.01 115.88 1785.7 146.516 1799.49 177.393C1816.83 216.228 1834.35 255.443 1852.6 261.245C1884.28 266.868 1917.37 202.742 1942.46 154.106C1947.97 143.441 1953.09 133.521 1957.72 125.244L1978.23 74.8393L1953.1 413.958L1970.18 415.205C1971.34 415.29 1972.19 416.346 1972.01 417.498L1926.79 717.225C1926.61 718.377 1925.5 719.137 1924.36 718.875L1622.17 649.197L1607.23 731.941L1571.25 706.461C1535.35 680.511 1463.46 629.081 1384.86 610.03C1342.99 599.853 1299.39 599.244 1255.8 598.636C1218.43 598.114 1181.06 597.592 1144.78 591.045C1112.92 585.296 1082.02 575.022 1051.19 564.774C1005.15 549.467 959.281 534.219 910.666 534.194C874.258 534.175 836.174 542.474 798.072 550.778C751.237 560.984 704.374 571.197 660.559 565.974C616.933 560.774 576.102 540.084 535.14 519.327C501.494 502.278 467.761 485.185 432.317 476.593C382.684 464.529 329.931 469.753 277.178 474.976C247.285 477.936 217.391 480.895 188.066 480.71C106.068 480.516 29.1599 456.902 -9.29424 445.095L-9.29453 445.094L-47.7486 433.287L-18.3553 270.405L-20.9038 270.216L-14.723 186.797Z" fill="#A05B00" fill-opacity="0.7"/>
</svg>
